<?xml version="1.0" standalone="no"?>
<!DOCTYPE svg PUBLIC "-//W3C//DTD SVG 20010904//EN"
 "http://www.w3.org/TR/2001/REC-SVG-20010904/DTD/svg10.dtd">
<svg version="1.0" xmlns="http://www.w3.org/2000/svg"
 width="478.000000pt" height="86.000000pt" viewBox="0 0 478.000000 86.000000"
 preserveAspectRatio="xMidYMid meet">
<metadata>
Created by potrace 1.16, written by Peter Selinger 2001-2019
</metadata>
<g transform="translate(0.000000,86.000000) scale(0.100000,-0.100000)"
fill="#000000" stroke="none">
<path d="M0 430 l0 -430 2390 0 2390 0 0 430 0 430 -2390 0 -2390 0 0 -430z
m2632 58 c3 -251 3 -252 26 -264 42 -21 35 -24 -56 -24 -51 0 -92 4 -92 9 0 5
10 11 23 13 22 3 22 3 25 222 2 221 -2 252 -34 239 -8 -3 -14 0 -14 6 0 13 74
49 102 50 16 1 18 -19 20 -251z m220 -5 l3 -258 23 -3 c12 -2 22 -8 22 -13 0
-5 -38 -9 -85 -9 -86 0 -104 7 -62 25 22 10 22 13 25 224 2 216 -2 249 -34
237 -7 -3 -16 -1 -19 3 -2 5 17 18 43 29 87 39 81 56 84 -235z m-1432 230 c49
-16 53 -16 62 0 20 36 28 14 28 -73 0 -55 -4 -90 -10 -90 -6 0 -13 8 -16 18
-26 82 -70 122 -137 122 -27 0 -45 -7 -62 -25 -51 -51 -25 -93 105 -165 85
-48 116 -73 136 -112 31 -60 6 -138 -58 -179 -28 -17 -44 -19 -103 -15 -38 3
-87 8 -107 12 -25 4 -38 2 -38 -5 0 -6 -4 -11 -10 -11 -6 0 -10 37 -10 90 0
50 4 90 9 90 5 0 14 -20 20 -44 25 -100 163 -143 221 -69 42 53 17 94 -99 162
-146 86 -180 140 -142 226 16 36 29 50 63 65 53 24 81 25 148 3z m630 -108 l0
-55 40 0 c29 0 40 -4 40 -15 0 -11 -11 -15 -40 -15 l-40 0 0 -123 c0 -147 10
-173 55 -143 35 23 44 13 18 -22 -28 -38 -67 -50 -101 -31 -34 19 -39 44 -41
197 l-1 122 -25 0 c-14 0 -25 2 -25 5 0 3 17 21 39 40 21 19 44 49 51 65 19
45 30 36 30 -25z m1210 0 l0 -55 40 0 c29 0 40 -4 40 -15 0 -11 -11 -15 -40
-15 l-40 0 0 -129 c0 -147 8 -167 56 -136 14 9 28 14 31 12 9 -9 -27 -54 -53
-65 -37 -17 -52 -15 -79 13 -24 23 -25 29 -25 165 l0 140 -25 0 c-33 0 -32 5
9 40 19 17 41 46 50 65 24 50 36 43 36 -20z m-1434 -64 c37 -23 44 -52 44
-193 0 -98 7 -120 30 -93 7 8 16 15 21 15 18 0 8 -23 -23 -51 -36 -35 -77 -36
-93 -2 l-11 21 -39 -24 c-49 -29 -84 -30 -119 -3 -22 17 -26 28 -26 69 0 44 4
52 36 79 21 16 64 40 97 52 59 22 59 22 54 57 -8 44 -23 62 -56 62 -34 0 -51
-17 -51 -52 0 -34 -33 -56 -56 -37 -17 14 -18 50 -1 72 35 47 137 62 193 28z
m595 -18 c28 -28 54 -95 41 -107 -3 -4 -56 -6 -119 -6 l-113 0 0 -28 c0 -42
33 -94 73 -115 31 -16 42 -17 73 -7 22 7 43 24 53 41 18 32 31 37 31 14 0 -26
-28 -71 -60 -99 -64 -53 -168 -26 -212 54 -15 28 -18 51 -16 112 3 85 18 115
79 156 49 34 128 27 170 -15z m639 -114 c0 -149 7 -189 35 -189 7 0 17 -4 20
-10 4 -6 -27 -10 -84 -10 -50 0 -91 4 -91 9 0 5 10 11 23 13 21 3 22 6 25 141
l3 137 -27 0 c-38 0 -25 20 26 41 73 29 70 35 70 -132z m541 136 c36 -19 69
-70 69 -107 l0 -28 -121 0 -121 0 7 -32 c11 -53 38 -92 78 -111 31 -16 42 -17
73 -7 22 7 43 24 53 41 18 33 31 37 31 11 0 -24 -53 -97 -79 -111 -61 -33
-155 1 -195 68 -30 52 -28 152 4 210 41 73 130 102 201 66z"/>
</g>
</svg>
